<svg xmlns="http://www.w3.org/2000/svg" xmlns:xlink="http://www.w3.org/1999/xlink" width="23" height="23" viewBox="0 0 23 23">
  <defs>
    <clipPath id="clip-path">
      <rect id="Rectangle_20884" data-name="Rectangle 20884" width="23" height="23" transform="translate(198 1021)" fill="#fff" stroke="#707070" stroke-width="1"/>
    </clipPath>
  </defs>
  <g id="Mask_Group_220" data-name="Mask Group 220" transform="translate(-198 -1021)" clip-path="url(#clip-path)">
    <g id="apple" transform="translate(198 1021)">
      <circle id="_Path_" data-name="&lt;Path&gt;" cx="11.5" cy="11.5" r="11.5" fill="#4d6272"/>
      <path id="_Compound_Path_" data-name="&lt;Compound Path&gt;" d="M14.795,11.6a2.845,2.845,0,0,0,1.727,2.6,7.043,7.043,0,0,1-.891,1.83c-.536.784-1.093,1.565-1.97,1.581-.862.016-1.139-.511-2.124-.511s-1.293.494-2.108.527C8.583,17.664,7.938,16.785,7.4,16c-1.105-1.6-1.95-4.515-.816-6.484A3.15,3.15,0,0,1,9.244,7.906c.831-.016,1.616.559,2.124.559s1.461-.692,2.464-.59a3.007,3.007,0,0,1,2.354,1.277A2.91,2.91,0,0,0,14.795,11.6M13.175,6.818a2.835,2.835,0,0,0,.669-2.055,2.884,2.884,0,0,0-1.9.975,2.694,2.694,0,0,0-.683,1.991,2.387,2.387,0,0,0,1.909-.911" fill="#fff"/>
    </g>
  </g>
</svg>
