<svg xmlns="http://www.w3.org/2000/svg" width="23" height="23.845" viewBox="0 0 23 23.845">
  <g id="Group_23709" data-name="Group 23709" transform="translate(10275 1508.845)">
    <circle id="Ellipse_736" data-name="Ellipse 736" cx="11.5" cy="11.5" r="11.5" transform="translate(-10275 -1508)" fill="#fff"/>
    <g id="Analog_Devices_Logo" transform="translate(-10359.746 -1683.733)">
      <path id="Path_37758" data-name="Path 37758" d="M107.742,186.339q0,5.591,0,11.182c0,.175-.033.211-.21.21q-11.208-.009-22.416,0c-.2,0-.216-.062-.215-.23q.006-11.2,0-22.39c0-.184.037-.224.223-.223q11.2.009,22.39,0c.206,0,.229.062.229.243Q107.738,180.735,107.742,186.339Z" fill="none" fill-rule="evenodd"/>
      <path id="Path_37759" data-name="Path 37759" d="M306.972,351.593c.357-.984.719-1.967,1.071-2.953q1.021-2.852,2.03-5.708c.059-.166.127-.24.32-.235.572.016,1.145.012,1.718,0a.254.254,0,0,1,.295.2q1.5,4.282,3.011,8.561c.019.055.029.113.049.191-.647,0-1.278,0-1.909,0-.131,0-.145-.083-.173-.176-.152-.5-.311-.992-.46-1.49a.215.215,0,0,0-.245-.187c-.974.008-1.949.007-2.923,0a.205.205,0,0,0-.233.173c-.161.5-.334,1-.506,1.5-.028.082-.035.181-.174.177-.623-.019-1.247.024-1.869-.023Z" transform="translate(-210.672 -159.198)" fill="#003876" fill-rule="evenodd"/>
      <path id="Path_37760" data-name="Path 37760" d="M149.69,351.6a.091.091,0,0,1,0,.033c-.648.047-1.3.008-1.946.021-.139,0-.133-.111-.159-.193-.155-.487-.312-.974-.454-1.465a.228.228,0,0,0-.267-.193q-1.435.011-2.871,0a.232.232,0,0,0-.27.192c-.155.5-.33.985-.5,1.476-.029.083-.032.184-.169.183-.614,0-1.228,0-1.873,0,.213-.6.414-1.181.619-1.757q1.242-3.479,2.482-6.959c.061-.172.131-.238.319-.234q.858.02,1.717,0c.183,0,.244.064.3.223q1.487,4.246,2.987,8.489C149.628,351.479,149.661,351.539,149.69,351.6Z" transform="translate(-53.39 -159.204)" fill="#ec1c24" fill-rule="evenodd"/>
      <path id="Path_37761" data-name="Path 37761" d="M273.2,261.53c.17.517.336,1.035.511,1.55.064.189-.026.366-.024.551,0,.064-.08.105-.155.111-.108.009-.048-.077-.07-.117a4.162,4.162,0,0,0-.644-.785.155.155,0,0,0-.146-.013c-.2.114-.2.342-.261.525-.043.123.058.215.2.241a.442.442,0,0,1,.142.055.087.087,0,0,1,.031.113c-.019.05-.052.014-.082.012-.1-.006-.2-.01-.307-.008-.128,0-.362.119-.181-.188.036-.062-.04-.142-.108-.14-.176,0-.2-.121-.24-.242-.209-.63-.447-1.253-.619-1.893a4.856,4.856,0,0,1-.31-1.053c-.005-.119-.148-.258-.167-.409-.037-.3-.222-.556-.264-.847a1.8,1.8,0,0,1,.025-.98c.294-.7.508-1.421.815-2.185l1.14,3.444a.363.363,0,0,1,.117.193c.207.612.414,1.223.6,1.843A.293.293,0,0,1,273.2,261.53Z" transform="translate(-176.018 -76.786)" fill="#003876" fill-rule="evenodd"/>
      <path id="Path_37762" data-name="Path 37762" d="M311.028,260.289a1.19,1.19,0,0,1,.223-.641c.132-.162.056-.341.152-.48a3.461,3.461,0,0,0,.369-.95c.119-.37.264-.732.375-1.105.012-.039.016-.086.094-.1.26.8.525,1.609.777,2.418a.825.825,0,0,1-.034.528q-.528,1.465-1.052,2.934c-.129-.064-.055-.243-.187-.3-.225-.7-.465-1.387-.681-2.086C311.042,260.437,311.074,260.357,311.028,260.289Z" transform="translate(-214.52 -77.911)" fill="#003876" fill-rule="evenodd"/>
      <path id="Path_37763" data-name="Path 37763" d="M271.416,371.487c.13.377.243.707.358,1.037.03.086.053.151-.085.133a10.072,10.072,0,0,0-1.089-.01Z" transform="translate(-176.167 -186.51)" fill="#013976" fill-rule="evenodd"/>
      <path id="Path_37764" data-name="Path 37764" d="M310.168,320.849q.358,1.078.715,2.156a.527.527,0,0,1,0,.153l-.046.058-.718-2.259Z" transform="translate(-213.66 -138.471)" fill="#eff2f6" fill-rule="evenodd"/>
      <path id="Path_37765" data-name="Path 37765" d="M369.32,383.552q.173.557.346,1.114c.223.715.443,1.431.675,2.144.048.149.054.209-.134.206-.623-.01-1.246-.007-1.87,0-.151,0-.188-.022-.134-.183.361-1.091.71-2.185,1.062-3.278Z" transform="translate(-268.74 -197.956)" fill="#fefefe" fill-rule="evenodd"/>
      <path id="Path_37766" data-name="Path 37766" d="M201.761,386.963l1.118-3.452h.051l1.081,3.451Z" transform="translate(-110.86 -197.917)" fill="#fefefe" fill-rule="evenodd"/>
    </g>
  </g>
</svg>
