<svg xmlns="http://www.w3.org/2000/svg" width="23" height="23" viewBox="0 0 23 23">
  <g id="Group_23735" data-name="Group 23735" transform="translate(10213 1590)">
    <circle id="Ellipse_743" data-name="Ellipse 743" cx="11.5" cy="11.5" r="11.5" transform="translate(-10213 -1590)" fill="#f74545"/>
    <path id="Path_37867" data-name="Path 37867" d="M250.219,327.086a6.944,6.944,0,0,1-.515,2.421.617.617,0,0,0,.1.669c.561.731,1.171,1.418,1.789,2.1a.612.612,0,0,0,.532.184,7.087,7.087,0,0,1,2.582.351c1.011.368,1.468,1.1,1.2,1.907-.258.764-1.091,1.075-2.084.792a4.9,4.9,0,0,1-2.095-1.52.966.966,0,0,0-.916-.348,26.968,26.968,0,0,0-2.931.564.68.68,0,0,0-.451.412,16.523,16.523,0,0,1-1.334,2.2,3.794,3.794,0,0,1-.858.891,1.328,1.328,0,0,1-1.589.026,1.44,1.44,0,0,1-.49-1.563,2.345,2.345,0,0,1,.546-.894,6.673,6.673,0,0,1,2.764-1.759.86.86,0,0,0,.541-.5c.394-.9.792-1.793,1.2-2.682a.657.657,0,0,0-.041-.678,5.232,5.232,0,0,1-.686-3.048,1.816,1.816,0,0,1,.2-.749,1.283,1.283,0,0,1,1.127-.755,1.225,1.225,0,0,1,1.081.67A2.493,2.493,0,0,1,250.219,327.086Z" transform="translate(-10450.039 -1910.023)" fill="#fefefe" fill-rule="evenodd"/>
    <path id="Path_37868" data-name="Path 37868" d="M256.663,432.987a6.547,6.547,0,0,1-1.212,1.618c-.1.087-.221.2-.364.086-.163-.127-.138-.29-.045-.451a3.289,3.289,0,0,1,.992-1c.172-.124.354-.233.532-.349Z" transform="translate(-10460.819 -2007.885)" fill="#f74747" fill-rule="evenodd"/>
    <path id="Path_37869" data-name="Path 37869" d="M351.44,417.38a3.223,3.223,0,0,1,1.1.285c.179.084.414.181.332.421s-.331.171-.523.145a2.442,2.442,0,0,1-1.284-.75C351.135,417.239,351.3,417.374,351.44,417.38Z" transform="translate(-10548.067 -1993.763)" fill="#f74747" fill-rule="evenodd"/>
    <path id="Path_37870" data-name="Path 37870" d="M302.939,339.916a3.892,3.892,0,0,1-.261-1.863c.009-.151.017-.357.189-.373.208-.019.24.211.271.361A3.348,3.348,0,0,1,302.939,339.916Z" transform="translate(-10504.122 -1921.442)" fill="#f74848" fill-rule="evenodd"/>
    <path id="Path_37871" data-name="Path 37871" d="M299.307,392.017l.82-1.848c.4.457.759.877,1.12,1.3.085.1.105.2-.061.228C300.591,391.8,299.994,391.9,299.307,392.017Z" transform="translate(-10501.234 -1969.305)" fill="#f74747" fill-rule="evenodd"/>
  </g>
</svg>
