<svg xmlns="http://www.w3.org/2000/svg" xmlns:xlink="http://www.w3.org/1999/xlink" width="23" height="23" viewBox="0 0 23 23">
  <defs>
    <clipPath id="clip-path">
      <circle id="Ellipse_737" data-name="Ellipse 737" cx="9.5" cy="9.5" r="9.5" transform="translate(-10272.503 -1473.528)" fill="#fff"/>
    </clipPath>
  </defs>
  <g id="Group_23709" data-name="Group 23709" transform="translate(10246 1469)">
    <circle id="Ellipse_738" data-name="Ellipse 738" cx="11.5" cy="11.5" r="11.5" transform="translate(-10246 -1469)" fill="#fff"/>
    <g id="Mask_Group_234" data-name="Mask Group 234" transform="translate(28.503 6.528)" clip-path="url(#clip-path)">
      <g id="_1200px-Automatic_Data_Processing__logo_" data-name="1200px-Automatic_Data_Processing_(logo)" transform="translate(-10273.057 -1468.72)">
        <path id="Path_37767" data-name="Path 37767" d="M-.45,2.376H4.487c.131.017.263.018.395.03a3.121,3.121,0,0,1,.763.191,4.347,4.347,0,0,1,1.3.739,3.476,3.476,0,0,1,.418.385.021.021,0,0,0,.023.007.158.158,0,0,0,.01-.093c0-.377,0-.755,0-1.132,0-.045-.007-.094.036-.127h3.308c.12.015.242.013.363.028a2.721,2.721,0,0,1,.784.236A3.538,3.538,0,0,1,13.9,5.111a2.6,2.6,0,0,1,.033.38c0,.021-.007.043.008.063v.619c-.015.115-.014.231-.028.346a2.755,2.755,0,0,1-.219.738,3.438,3.438,0,0,1-.853,1.2,3.48,3.48,0,0,1-1.8.883c-.147.025-.3.032-.444.048-.1.01-.1.014-.1.114q0,.786,0,1.572c0,.038,0,.076,0,.114s-.014.058-.051.063H7.457C7.4,11.242,7.4,11.2,7.4,11.157c0-.133,0-.266,0-.4,0-.287,0-.574,0-.876a4.279,4.279,0,0,1-3.148,1.366H1.274c-.041-.009-.046-.041-.048-.075s0-.076,0-.114q0-.765,0-1.53c0-.133-.008-.141-.136-.141-.64,0-1.281,0-1.921,0a.2.2,0,0,0-.195.114c-.312.546-.634,1.087-.948,1.632-.031.053-.057.114-.133.117H-5.527a.172.172,0,0,1-.088-.008v-.016a2.175,2.175,0,0,1,.279-.539q.393-.684.794-1.363c.371-.631.738-1.264,1.108-1.9q.6-1.018,1.189-2.037.629-1.074,1.254-2.15.228-.39.455-.78A.209.209,0,0,1-.45,2.376Z" transform="translate(5.615 -2.376)" fill="#ed2722" fill-rule="evenodd"/>
        <path id="Path_37774" data-name="Path 37774" d="M-2.094,12.8a.054.054,0,0,1,0,.014H-5.542c-.024,0-.055.019-.073-.015H-2.2Z" transform="translate(5.615 -3.938)" fill="#f69492" fill-rule="evenodd"/>
        <path id="Path_37775" data-name="Path 37775" d="M9.735,12.817l0-.018,2.148,0,.862,0,0,.018Z" transform="translate(3.316 -3.937)" fill="#f69492" fill-rule="evenodd"/>
        <path id="Path_37776" data-name="Path 37776" d="M2.472,12.818a.041.041,0,0,1,0-.016H5.308c.022,0,.043,0,.065,0s.011.009,0,.013Z" transform="translate(4.404 -3.938)" fill="#f69492" fill-rule="evenodd"/>
        <path id="Path_37777" data-name="Path 37777" d="M5.883,12.818s0-.009,0-.013h.1a.1.1,0,0,0,0,.014Z" transform="translate(3.893 -3.938)" fill="#f9afaf" fill-rule="evenodd"/>
        <path id="Path_37778" data-name="Path 37778" d="M14.7,12.8a.121.121,0,0,0,0,.014h-.1s0-.009,0-.014A.058.058,0,0,1,14.7,12.8Z" transform="translate(2.587 -3.933)" fill="#fce3e2" fill-rule="evenodd"/>
        <path id="Path_37779" data-name="Path 37779" d="M-2.522,9.158q1.576-2.7,3.15-5.4a.137.137,0,0,1,.139-.079q1.861,0,3.723,0a3.331,3.331,0,0,1,2.233.8A3.253,3.253,0,0,1,7.817,6.3a.537.537,0,0,1,.028.134c0,.094.045.1.12.1q.477,0,.953,0c.069,0,.084-.02.084-.086,0-.893,0-1.787,0-2.68,0-.072.017-.089.089-.089.584,0,1.168-.007,1.751,0a2.312,2.312,0,0,1,2.227,1.427,2.357,2.357,0,0,1-1.613,3.25,2.5,2.5,0,0,1-.6.065c-.329,0-.657,0-.986,0-.064,0-.082.016-.082.081,0,.578,0,1.157,0,1.735,0,.078-.024.093-.1.091q-.305-.007-.611,0c-.064,0-.081-.016-.08-.08C9,9.673,9,9.1,9,8.521c0-.076-.016-.1-.1-.1-.418,0-.836,0-1.254,0a.1.1,0,0,0-.1.065,3.3,3.3,0,0,1-2.208,1.752,2.929,2.929,0,0,1-.714.088c-.576,0-1.151,0-1.727,0-.069,0-.084-.018-.083-.085,0-.578,0-1.157,0-1.735,0-.074-.021-.088-.09-.088q-1.91,0-3.821,0a.125.125,0,0,0-.126.074c-.341.589-.686,1.177-1.027,1.766a.112.112,0,0,1-.113.067C-2.637,10.325-2.747,9.543-2.522,9.158Z" transform="translate(5.21 -2.57)" fill="#fefefe" fill-rule="evenodd"/>
        <path id="Path_37780" data-name="Path 37780" d="M14.586,12.561h-.1a.69.69,0,1,1,.7-.885.686.686,0,0,1-.517.869C14.645,12.552,14.615,12.556,14.586,12.561Z" transform="translate(2.702 -3.695)" fill="#ed2722" fill-rule="evenodd"/>
        <path id="Path_37781" data-name="Path 37781" d="M5.32,8.561c.166-.01.369.012.572-.016a1.42,1.42,0,0,0,.036-2.8,1.027,1.027,0,0,0-.209-.022c-.312,0-.624,0-.936,0-.064,0-.089-.011-.088-.083,0-.323,0-.646,0-.969,0-.043,0-.072.059-.071.393.006.788-.021,1.18.018A2.541,2.541,0,0,1,8.158,6.63a2.543,2.543,0,0,1-1.964,3,2.364,2.364,0,0,1-.491.055c-.309,0-.619,0-.928,0-.058,0-.08-.011-.079-.075q.005-.489,0-.977c0-.06.021-.073.075-.072C4.941,8.563,5.112,8.561,5.32,8.561Z" transform="translate(4.071 -2.709)" fill="#ed2722" fill-rule="evenodd"/>
        <path id="Path_37782" data-name="Path 37782" d="M12.67,7.777c-.24,0-.435,0-.631,0-.051,0-.069-.011-.069-.066q0-.489,0-.977c0-.055.018-.067.069-.066q.5,0,1,0a.48.48,0,0,0,.488-.328.468.468,0,0,0-.439-.617c-.348,0-.7,0-1.043,0-.059,0-.079-.013-.078-.075q0-.485,0-.969c0-.059.013-.079.076-.079.345,0,.69,0,1.034,0a1.588,1.588,0,0,1,.331,3.142A4.813,4.813,0,0,1,12.67,7.777Z" transform="translate(2.981 -2.71)" fill="#ed2722" fill-rule="evenodd"/>
        <path id="Path_37783" data-name="Path 37783" d="M-.362,7.774a.147.147,0,0,1,.036-.083c.184-.318.371-.635.554-.954a.12.12,0,0,1,.12-.07c.538,0,1.075,0,1.613,0,.064,0,.081-.016.081-.08,0-.633,0-1.265,0-1.9,0-.071.017-.092.09-.091.315,0,.63,0,.945,0,.059,0,.084.009.084.078q0,1.511,0,3.022c0,.049,0,.077-.066.077q-1.7,0-3.4,0Z" transform="translate(4.828 -2.71)" fill="#ed2722" fill-rule="evenodd"/>
        <path id="Path_37784" data-name="Path 37784" d="M13.984,11.89a.568.568,0,1,1,.564.574A.567.567,0,0,1,13.984,11.89Z" transform="translate(2.68 -3.717)" fill="#fefefe" fill-rule="evenodd"/>
        <path id="Path_37785" data-name="Path 37785" d="M14.751,11.916c.18.08.094.265.167.39-.166.021-.166.021-.19-.127,0-.019,0-.038-.005-.057-.017-.138-.1-.191-.234-.158-.037.009-.029.033-.03.056,0,.081,0,.163,0,.244,0,.057-.032.05-.068.051s-.061,0-.061-.049c0-.239,0-.477,0-.716,0-.033.008-.05.045-.049a2.419,2.419,0,0,1,.316.011c.124.021.186.076.2.179S14.87,11.858,14.751,11.916Z" transform="translate(2.628 -3.743)" fill="#ed2722" fill-rule="evenodd"/>
        <path id="Path_37786" data-name="Path 37786" d="M14.6,11.652h.032c.061,0,.123,0,.13.087s-.037.108-.123.12c-.144.02-.19-.031-.157-.176C14.487,11.652,14.487,11.652,14.6,11.652Z" transform="translate(2.607 -3.766)" fill="#fefcfc" fill-rule="evenodd"/>
      </g>
    </g>
  </g>
</svg>
