<svg xmlns="http://www.w3.org/2000/svg" xmlns:xlink="http://www.w3.org/1999/xlink" width="32" height="25" viewBox="0 0 32 25">
  <defs>
    <clipPath id="clip-path">
      <rect id="Rectangle_21179" data-name="Rectangle 21179" width="23" height="25" transform="translate(184 1141)" fill="#fff" stroke="#707070" stroke-width="1"/>
    </clipPath>
  </defs>
  <g id="aus200" transform="translate(-184 -1141)">
    <g id="Mask_Group_236" data-name="Mask Group 236" clip-path="url(#clip-path)">
      <g id="aud" transform="translate(184 1142)">
        <path id="Path_37365" data-name="Path 37365" d="M23,11.5a11.5,11.5,0,0,1-23,0S11.5,0,11.5,0A11.5,11.5,0,0,1,23,11.5Z" fill="#0052b4"/>
        <g id="Group_21631" data-name="Group 21631">
          <path id="Path_37366" data-name="Path 37366" d="M11.5,0h0Z" fill="#f0f0f0"/>
          <path id="Path_37367" data-name="Path 37367" d="M11.469,11.5H11.5v-.031Z" fill="#f0f0f0"/>
          <path id="Path_37368" data-name="Path 37368" d="M11.5,6V0h0A11.5,11.5,0,0,0,0,11.5H6V8.121L9.379,11.5h2.091l.031-.031V9.379L8.121,6H11.5Z" fill="#f0f0f0"/>
        </g>
        <g id="Group_21632" data-name="Group 21632">
          <path id="Path_37369" data-name="Path 37369" d="M5.818,1.5A11.555,11.555,0,0,0,1.5,5.818V11.5h3v-7h7v-3H5.818Z" fill="#d80027"/>
          <path id="Path_37370" data-name="Path 37370" d="M11.5,10.086,7.414,6H6l5.5,5.5h0Z" fill="#d80027"/>
        </g>
        <g id="Group_21633" data-name="Group 21633">
          <path id="Path_37371" data-name="Path 37371" d="M6.936,13.5l.631,1.32,1.425-.329-.638,1.316,1.146.909-1.427.322,0,1.463-1.141-.915L5.795,18.5l0-1.463-1.427-.322,1.146-.909L4.879,14.49,6.3,14.82Z" fill="#f0f0f0"/>
          <path id="Path_37372" data-name="Path 37372" d="M17.218,16l.316.66.713-.165-.319.658.573.454-.714.161,0,.731-.571-.458-.571.458,0-.731-.713-.161.573-.454L16.19,16.5l.713.165Z" fill="#f0f0f0"/>
          <path id="Path_37373" data-name="Path 37373" d="M14.282,9l.316.66L15.31,9.5l-.319.658.573.454-.713.161,0,.731-.571-.458-.571.458,0-.731L13,10.608l.573-.454L13.254,9.5l.713.165Z" fill="#f0f0f0"/>
          <path id="Path_37374" data-name="Path 37374" d="M17.218,5l.316.66.713-.165-.319.658.573.454-.713.161,0,.731-.571-.458-.571.458,0-.731-.713-.161.573-.454L16.19,5.5l.713.165Z" fill="#f0f0f0"/>
          <path id="Path_37375" data-name="Path 37375" d="M19.782,8l.316.66L20.81,8.5l-.319.658.573.454-.714.161,0,.731-.571-.458-.571.458,0-.731L18.5,9.608l.573-.454L18.754,8.5l.713.165Z" fill="#f0f0f0"/>
          <path id="Path_37376" data-name="Path 37376" d="M17.949,11.5l.248.764H19l-.65.472.248.764-.65-.472-.65.472.248-.764-.65-.472h.8Z" fill="#f0f0f0"/>
        </g>
      </g>
    </g>
    <path id="Path_40395" data-name="Path 40395" d="M9.5,0A9.5,9.5,0,1,1,0,9.5,9.5,9.5,0,0,1,9.5,0Z" transform="translate(197 1144)" fill="#636363"/>
    <path id="Path_37621" data-name="Path 37621" d="M7.2,7H3.724V6.248l1.6-1.682A1.909,1.909,0,0,0,5.915,3.5a.744.744,0,0,0-.14-.489.5.5,0,0,0-.407-.167.507.507,0,0,0-.427.224.92.92,0,0,0-.164.559H3.621a1.634,1.634,0,0,1,.229-.846,1.606,1.606,0,0,1,.636-.607A1.888,1.888,0,0,1,5.4,1.952a1.858,1.858,0,0,1,1.242.373,1.33,1.33,0,0,1,.436,1.07,1.554,1.554,0,0,1-.109.573,2.511,2.511,0,0,1-.34.584,8.567,8.567,0,0,1-.743.819l-.643.742H7.2Zm4.037-2.034a2.376,2.376,0,0,1-.453,1.555A1.565,1.565,0,0,1,9.5,7.068a1.573,1.573,0,0,1-1.285-.55,2.373,2.373,0,0,1-.455-1.552V4.057A2.376,2.376,0,0,1,8.217,2.5,1.569,1.569,0,0,1,9.5,1.955a1.57,1.57,0,0,1,1.282.55,2.378,2.378,0,0,1,.455,1.555ZM10.081,3.91a1.775,1.775,0,0,0-.14-.8A.468.468,0,0,0,9.5,2.844a.457.457,0,0,0-.432.246,1.672,1.672,0,0,0-.145.745V5.106a1.788,1.788,0,0,0,.14.815A.47.47,0,0,0,9.5,6.18a.464.464,0,0,0,.434-.251,1.707,1.707,0,0,0,.144-.788Zm5.206,1.056a2.376,2.376,0,0,1-.453,1.555,1.565,1.565,0,0,1-1.277.547,1.573,1.573,0,0,1-1.285-.55,2.373,2.373,0,0,1-.455-1.552V4.057A2.376,2.376,0,0,1,12.27,2.5a1.569,1.569,0,0,1,1.28-.547,1.57,1.57,0,0,1,1.282.55,2.378,2.378,0,0,1,.455,1.555ZM14.135,3.91a1.775,1.775,0,0,0-.14-.8.468.468,0,0,0-.444-.265.457.457,0,0,0-.432.246,1.672,1.672,0,0,0-.145.745V5.106a1.788,1.788,0,0,0,.14.815.47.47,0,0,0,.444.258.464.464,0,0,0,.434-.251,1.707,1.707,0,0,0,.144-.788Z" transform="translate(197 1149)" fill="#fff"/>
  </g>
</svg>
