<svg xmlns="http://www.w3.org/2000/svg" xmlns:xlink="http://www.w3.org/1999/xlink" width="32" height="25" viewBox="0 0 32 25">
  <defs>
    <clipPath id="clip-path">
      <rect id="Rectangle_21179" data-name="Rectangle 21179" width="23" height="25" transform="translate(184 1328)" fill="#fff" stroke="#707070" stroke-width="1"/>
    </clipPath>
    <clipPath id="clip-path-2">
      <circle id="Ellipse_732" data-name="Ellipse 732" cx="11.5" cy="11.5" r="11.5"/>
    </clipPath>
  </defs>
  <g id="ger30" transform="translate(-184 -1328)">
    <g id="Mask_Group_240" data-name="Mask Group 240" clip-path="url(#clip-path)">
      <g id="germany-flag-round" transform="translate(184 1329)">
        <g id="Group_21650" data-name="Group 21650" clip-path="url(#clip-path-2)">
          <rect id="_x33__1_" width="38.333" height="23" transform="translate(-7.667)"/>
          <rect id="_x32__1_" width="38.333" height="15.333" transform="translate(-7.667 7.667)" fill="#d00"/>
          <rect id="_x31__1_" width="38.333" height="7.667" transform="translate(-7.667 15.333)" fill="#ffce00"/>
        </g>
      </g>
    </g>
    <circle id="Ellipse_728" data-name="Ellipse 728" cx="9.5" cy="9.5" r="9.5" transform="translate(197 1331)" fill="#636363"/>
    <path id="Path_37625" data-name="Path 37625" d="M6.8,4.03h.543A.565.565,0,0,0,7.993,3.4.547.547,0,0,0,7.839,3,.583.583,0,0,0,7.4,2.84a.624.624,0,0,0-.4.133.407.407,0,0,0-.169.332H5.686A1.179,1.179,0,0,1,5.9,2.6a1.445,1.445,0,0,1,.607-.48,2.074,2.074,0,0,1,.853-.173,2.038,2.038,0,0,1,1.306.379,1.261,1.261,0,0,1,.475,1.042,1.051,1.051,0,0,1-.2.607,1.4,1.4,0,0,1-.573.463A1.338,1.338,0,0,1,9,4.879a1.148,1.148,0,0,1,.226.723A1.284,1.284,0,0,1,8.71,6.668a2.128,2.128,0,0,1-1.347.4,2.207,2.207,0,0,1-.907-.186,1.422,1.422,0,0,1-.634-.516,1.342,1.342,0,0,1-.215-.75H6.766a.519.519,0,0,0,.185.4A.652.652,0,0,0,7.4,6.18.683.683,0,0,0,7.89,6.01a.565.565,0,0,0,.181-.432.661.661,0,0,0-.188-.533.786.786,0,0,0-.52-.157H6.8Zm6.457.937a2.376,2.376,0,0,1-.453,1.555,1.565,1.565,0,0,1-1.277.547,1.573,1.573,0,0,1-1.285-.55,2.373,2.373,0,0,1-.455-1.552V4.057A2.376,2.376,0,0,1,10.243,2.5a1.569,1.569,0,0,1,1.28-.547,1.57,1.57,0,0,1,1.282.55,2.378,2.378,0,0,1,.455,1.555ZM12.108,3.91a1.775,1.775,0,0,0-.14-.8.468.468,0,0,0-.444-.265.457.457,0,0,0-.432.246,1.672,1.672,0,0,0-.145.745V5.106a1.788,1.788,0,0,0,.14.815.47.47,0,0,0,.444.258.464.464,0,0,0,.434-.251,1.707,1.707,0,0,0,.144-.788Z" transform="translate(197 1336)" fill="#fff"/>
  </g>
</svg>
