<svg xmlns="http://www.w3.org/2000/svg" xmlns:xlink="http://www.w3.org/1999/xlink" width="32" height="25" viewBox="0 0 32 25">
  <defs>
    <clipPath id="clip-path">
      <rect id="Rectangle_21179" data-name="Rectangle 21179" width="23" height="25" transform="translate(184 1235)" fill="#fff" stroke="#707070" stroke-width="1"/>
    </clipPath>
  </defs>
  <g id="eustx50" transform="translate(-184 -1235)">
    <g id="Mask_Group_238" data-name="Mask Group 238" clip-path="url(#clip-path)">
      <g id="eur" transform="translate(184 1236)">
        <circle id="Ellipse_730" data-name="Ellipse 730" cx="11.5" cy="11.5" r="11.5" fill="#0052b4"/>
        <g id="Group_21648" data-name="Group 21648">
          <path id="Path_37377" data-name="Path 37377" d="M11.5,4.5l.372,1.146h1.2l-.975.708L12.475,7.5,11.5,6.792l-.975.708L10.9,6.354l-.975-.708h1.2Z" fill="#ffda44"/>
          <path id="Path_37378" data-name="Path 37378" d="M6.55,6.55,7.624,7.1l.852-.852-.189,1.19,1.074.547-1.19.188-.188,1.19L7.435,8.287l-1.19.189L7.1,7.624Z" fill="#ffda44"/>
          <path id="Path_37379" data-name="Path 37379" d="M4.5,11.5l1.146-.372v-1.2l.708.975L7.5,10.525l-.708.975.708.975L6.354,12.1l-.708.975v-1.2Z" fill="#ffda44"/>
          <path id="Path_37380" data-name="Path 37380" d="M6.55,16.45,7.1,15.376l-.852-.852,1.19.189.547-1.074.189,1.19,1.19.188-1.073.547.188,1.19L7.624,15.9Z" fill="#ffda44"/>
          <path id="Path_37381" data-name="Path 37381" d="M11.5,18.5l-.372-1.146h-1.2l.975-.708L10.525,15.5l.975.708.975-.708L12.1,16.646l.975.708h-1.2Z" fill="#ffda44"/>
          <path id="Path_37382" data-name="Path 37382" d="M16.45,16.45,15.376,15.9l-.852.852.189-1.19-1.073-.547,1.19-.188.188-1.19.547,1.074,1.19-.189-.852.852Z" fill="#ffda44"/>
          <path id="Path_37383" data-name="Path 37383" d="M18.5,11.5l-1.146.372v1.2l-.708-.975-1.146.372.708-.975-.708-.975,1.146.372.708-.975v1.2Z" fill="#ffda44"/>
          <path id="Path_37384" data-name="Path 37384" d="M16.45,6.55,15.9,7.624l.852.852-1.19-.189-.547,1.074-.188-1.19-1.19-.189,1.073-.547-.189-1.19.852.852Z" fill="#ffda44"/>
        </g>
      </g>
    </g>
    <path id="Path_40396" data-name="Path 40396" d="M9.5,0A9.5,9.5,0,1,1,0,9.5,9.5,9.5,0,0,1,9.5,0Z" transform="translate(197 1238)" fill="#636363"/>
    <path id="Path_37623" data-name="Path 37623" d="M5.819,4.569l.3-2.546H9.032v.9H7.06l-.113.989a1.359,1.359,0,0,1,.323-.127,1.474,1.474,0,0,1,.391-.055,1.46,1.46,0,0,1,1.14.439A1.769,1.769,0,0,1,9.2,5.4a1.766,1.766,0,0,1-.214.866,1.468,1.468,0,0,1-.6.6,1.894,1.894,0,0,1-.913.208,2.038,2.038,0,0,1-.878-.193,1.576,1.576,0,0,1-.643-.529,1.286,1.286,0,0,1-.229-.76H6.878a.653.653,0,0,0,.174.433.553.553,0,0,0,.414.16q.581,0,.581-.86,0-.795-.711-.795a.709.709,0,0,0-.6.259Zm7.441.4a2.376,2.376,0,0,1-.453,1.555,1.565,1.565,0,0,1-1.277.547,1.573,1.573,0,0,1-1.285-.55,2.373,2.373,0,0,1-.455-1.552V4.057A2.376,2.376,0,0,1,10.243,2.5a1.569,1.569,0,0,1,1.28-.547,1.57,1.57,0,0,1,1.282.55,2.378,2.378,0,0,1,.455,1.555ZM12.108,3.91a1.775,1.775,0,0,0-.14-.8.468.468,0,0,0-.444-.265.457.457,0,0,0-.432.246,1.672,1.672,0,0,0-.145.745V5.106a1.788,1.788,0,0,0,.14.815.47.47,0,0,0,.444.258.464.464,0,0,0,.434-.251,1.707,1.707,0,0,0,.144-.788Z" transform="translate(197 1243)" fill="#fff"/>
  </g>
</svg>
