<svg xmlns="http://www.w3.org/2000/svg" xmlns:xlink="http://www.w3.org/1999/xlink" width="32" height="25" viewBox="0 0 32 25">
  <defs>
    <clipPath id="clip-path">
      <rect id="Rectangle_21179" data-name="Rectangle 21179" width="23" height="25" transform="translate(184 1423)" fill="#fff" stroke="#707070" stroke-width="1"/>
    </clipPath>
  </defs>
  <g id="jpy225" transform="translate(-184 -1423)">
    <g id="Mask_Group_242" data-name="Mask Group 242" clip-path="url(#clip-path)">
      <g id="jpy" transform="translate(184 1424)">
        <circle id="Ellipse_734" data-name="Ellipse 734" cx="11.5" cy="11.5" r="11.5" fill="#f0f0f0"/>
        <circle id="Ellipse_735" data-name="Ellipse 735" cx="5" cy="5" r="5" transform="translate(6.5 6.5)" fill="#d80027"/>
      </g>
    </g>
    <circle id="Ellipse_728" data-name="Ellipse 728" cx="9.5" cy="9.5" r="9.5" transform="translate(197 1426)" fill="#636363"/>
    <path id="Path_37627" data-name="Path 37627" d="M7.2,7H3.724V6.248l1.6-1.682A1.909,1.909,0,0,0,5.915,3.5a.744.744,0,0,0-.14-.489.5.5,0,0,0-.407-.167.507.507,0,0,0-.427.224.92.92,0,0,0-.164.559H3.621a1.634,1.634,0,0,1,.229-.846,1.606,1.606,0,0,1,.636-.607A1.888,1.888,0,0,1,5.4,1.952a1.858,1.858,0,0,1,1.242.373,1.33,1.33,0,0,1,.436,1.07,1.554,1.554,0,0,1-.109.573,2.511,2.511,0,0,1-.34.584,8.567,8.567,0,0,1-.743.819l-.643.742H7.2ZM11.25,7H7.777V6.248l1.6-1.682A1.909,1.909,0,0,0,9.968,3.5a.744.744,0,0,0-.14-.489.5.5,0,0,0-.407-.167.507.507,0,0,0-.427.224.92.92,0,0,0-.164.559H7.675A1.634,1.634,0,0,1,7.9,2.777,1.606,1.606,0,0,1,8.54,2.17a1.888,1.888,0,0,1,.909-.219,1.858,1.858,0,0,1,1.242.373,1.33,1.33,0,0,1,.436,1.07,1.554,1.554,0,0,1-.109.573,2.511,2.511,0,0,1-.34.584,8.567,8.567,0,0,1-.743.819l-.643.742H11.25ZM11.9,4.569l.3-2.546h2.909v.9H13.14l-.113.989a1.359,1.359,0,0,1,.323-.127,1.625,1.625,0,0,1,1.531.384,1.769,1.769,0,0,1,.4,1.232,1.766,1.766,0,0,1-.214.866,1.468,1.468,0,0,1-.6.6,1.894,1.894,0,0,1-.913.208,2.038,2.038,0,0,1-.878-.193,1.576,1.576,0,0,1-.643-.529,1.286,1.286,0,0,1-.229-.76h1.155a.653.653,0,0,0,.174.433.553.553,0,0,0,.414.16q.581,0,.581-.86,0-.795-.711-.795a.709.709,0,0,0-.6.259Z" transform="translate(197 1431)" fill="#fff"/>
  </g>
</svg>
