<svg xmlns="http://www.w3.org/2000/svg" xmlns:xlink="http://www.w3.org/1999/xlink" width="32" height="25" viewBox="0 0 32 25">
  <defs>
    <clipPath id="clip-path">
      <rect id="Rectangle_21179" data-name="Rectangle 21179" width="23" height="25" transform="translate(184 1565)" fill="#fff" stroke="#707070" stroke-width="1"/>
    </clipPath>
  </defs>
  <g id="uk100" transform="translate(-184 -1565)">
    <g id="Mask_Group_244" data-name="Mask Group 244" clip-path="url(#clip-path)">
      <g id="gbp" transform="translate(184 1566)">
        <circle id="Ellipse_737" data-name="Ellipse 737" cx="11.5" cy="11.5" r="11.5" fill="#f0f0f0"/>
        <g id="Group_21655" data-name="Group 21655">
          <path id="Path_37395" data-name="Path 37395" d="M2.377,4.5A11.458,11.458,0,0,0,.4,8.5H6.379Z" fill="#0052b4"/>
          <path id="Path_37396" data-name="Path 37396" d="M22.6,8.5a11.459,11.459,0,0,0-1.981-4l-4,4Z" fill="#0052b4"/>
          <path id="Path_37397" data-name="Path 37397" d="M.4,14.5a11.459,11.459,0,0,0,1.981,4l4-4Z" fill="#0052b4"/>
          <path id="Path_37398" data-name="Path 37398" d="M18.5,2.377A11.459,11.459,0,0,0,14.5.4V6.379Z" fill="#0052b4"/>
          <path id="Path_37399" data-name="Path 37399" d="M4.5,20.623a11.459,11.459,0,0,0,4,1.981V16.621Z" fill="#0052b4"/>
          <path id="Path_37400" data-name="Path 37400" d="M8.5.4a11.459,11.459,0,0,0-4,1.981l4,4Z" fill="#0052b4"/>
          <path id="Path_37401" data-name="Path 37401" d="M14.5,22.6a11.459,11.459,0,0,0,4-1.981l-4-4V22.6Z" fill="#0052b4"/>
          <path id="Path_37402" data-name="Path 37402" d="M16.621,14.5l4,4a11.459,11.459,0,0,0,1.981-4Z" fill="#0052b4"/>
        </g>
        <g id="Group_21656" data-name="Group 21656">
          <path id="Path_37403" data-name="Path 37403" d="M22.9,10H13V.1a11.606,11.606,0,0,0-3,0V10H.1a11.606,11.606,0,0,0,0,3H10v9.9a11.606,11.606,0,0,0,3,0V13h9.9a11.606,11.606,0,0,0,0-3Z" fill="#d80027"/>
          <path id="Path_37404" data-name="Path 37404" d="M14.5,14.5h0l5.132,5.132q.354-.354.676-.738L15.914,14.5H14.5Z" fill="#d80027"/>
          <path id="Path_37405" data-name="Path 37405" d="M8.5,14.5h0L3.368,19.632q.354.354.738.676L8.5,15.914V14.5Z" fill="#d80027"/>
          <path id="Path_37406" data-name="Path 37406" d="M8.5,8.5h0L3.368,3.368q-.354.354-.676.738L7.086,8.5H8.5Z" fill="#d80027"/>
          <path id="Path_37407" data-name="Path 37407" d="M14.5,8.5h0l5.132-5.132q-.354-.354-.738-.676L14.5,7.086Z" fill="#d80027"/>
        </g>
      </g>
    </g>
    <circle id="Ellipse_728" data-name="Ellipse 728" cx="9.5" cy="9.5" r="9.5" transform="translate(197 1568)" fill="#636363"/>
    <path id="Path_37630" data-name="Path 37630" d="M6.277,7H5.122V3.322l-1.135.332V2.779l2.184-.755h.106Zm4.956-2.034a2.376,2.376,0,0,1-.453,1.555A1.565,1.565,0,0,1,9.5,7.068a1.573,1.573,0,0,1-1.285-.55,2.373,2.373,0,0,1-.455-1.552V4.057A2.376,2.376,0,0,1,8.217,2.5,1.569,1.569,0,0,1,9.5,1.955a1.57,1.57,0,0,1,1.282.55,2.378,2.378,0,0,1,.455,1.555ZM10.081,3.91a1.775,1.775,0,0,0-.14-.8A.468.468,0,0,0,9.5,2.844a.457.457,0,0,0-.432.246,1.672,1.672,0,0,0-.145.745V5.106a1.788,1.788,0,0,0,.14.815A.47.47,0,0,0,9.5,6.18a.464.464,0,0,0,.434-.251,1.707,1.707,0,0,0,.144-.788Zm5.206,1.056a2.376,2.376,0,0,1-.453,1.555,1.565,1.565,0,0,1-1.277.547,1.573,1.573,0,0,1-1.285-.55,2.373,2.373,0,0,1-.455-1.552V4.057A2.376,2.376,0,0,1,12.27,2.5a1.569,1.569,0,0,1,1.28-.547,1.57,1.57,0,0,1,1.282.55,2.378,2.378,0,0,1,.455,1.555ZM14.135,3.91a1.775,1.775,0,0,0-.14-.8.468.468,0,0,0-.444-.265.457.457,0,0,0-.432.246,1.672,1.672,0,0,0-.145.745V5.106a1.788,1.788,0,0,0,.14.815.47.47,0,0,0,.444.258.464.464,0,0,0,.434-.251,1.707,1.707,0,0,0,.144-.788Z" transform="translate(197 1573)" fill="#fff"/>
  </g>
</svg>
