<svg xmlns="http://www.w3.org/2000/svg" xmlns:xlink="http://www.w3.org/1999/xlink" width="32" height="25" viewBox="0 0 32 25">
  <defs>
    <clipPath id="clip-path">
      <rect id="Rectangle_21179" data-name="Rectangle 21179" width="23" height="25" transform="translate(184 1611)" fill="#fff" stroke="#707070" stroke-width="1"/>
    </clipPath>
  </defs>
  <g id="us30" transform="translate(-184 -1611)">
    <g id="Mask_Group_245" data-name="Mask Group 245" clip-path="url(#clip-path)">
      <g id="usd" transform="translate(184 1612)">
        <circle id="Ellipse_738" data-name="Ellipse 738" cx="11.5" cy="11.5" r="11.5" fill="#f0f0f0"/>
        <g id="Group_21658" data-name="Group 21658">
          <path id="Path_37408" data-name="Path 37408" d="M11,11.5H23a11.513,11.513,0,0,0-.4-3H11Z" fill="#d80027"/>
          <path id="Path_37409" data-name="Path 37409" d="M11,5.5H21.312a11.561,11.561,0,0,0-2.654-3H11Z" fill="#d80027"/>
          <path id="Path_37410" data-name="Path 37410" d="M11.5,23a11.451,11.451,0,0,0,7.159-2.5H4.341A11.451,11.451,0,0,0,11.5,23Z" fill="#d80027"/>
          <path id="Path_37411" data-name="Path 37411" d="M1.688,17.5H21.312a11.431,11.431,0,0,0,1.292-3H.4A11.431,11.431,0,0,0,1.688,17.5Z" fill="#d80027"/>
        </g>
        <path id="Path_37412" data-name="Path 37412" d="M5.327,1.8H6.375L5.4,2.5,5.773,3.65,4.8,2.942l-.975.708.322-.99a11.563,11.563,0,0,0-2.23,2.486H2.25L1.629,5.6q-.145.242-.278.491l.3.912-.553-.4q-.206.437-.376.893l.326,1h1.2L1.275,9.2l.372,1.146L.673,9.642l-.584.424A11.611,11.611,0,0,0,0,11.5H11.5V0A11.446,11.446,0,0,0,5.327,1.8Zm.446,8.554L4.8,9.642l-.975.708L4.2,9.2,3.221,8.5h1.2L4.8,7.35,5.17,8.5h1.2L5.4,9.2ZM5.4,5.854,5.773,7,4.8,6.292,3.823,7,4.2,5.854l-.975-.708h1.2L4.8,4,5.17,5.146h1.2Zm4.5,4.5-.975-.708-.975.708L8.32,9.2,7.346,8.5h1.2L8.923,7.35,9.3,8.5h1.2L9.525,9.2Zm-.372-4.5L9.9,7l-.975-.708L7.948,7,8.32,5.854l-.975-.708h1.2L8.923,4,9.3,5.146h1.2Zm0-3.35L9.9,3.65l-.975-.708-.975.708L8.32,2.5,7.346,1.8h1.2L8.923.65,9.3,1.8h1.2Z" fill="#0052b4"/>
      </g>
    </g>
    <circle id="Ellipse_728" data-name="Ellipse 728" cx="9.5" cy="9.5" r="9.5" transform="translate(197 1614)" fill="#636363"/>
    <path id="Path_37631" data-name="Path 37631" d="M6.8,4.03h.543A.565.565,0,0,0,7.993,3.4.547.547,0,0,0,7.839,3,.583.583,0,0,0,7.4,2.84a.624.624,0,0,0-.4.133.407.407,0,0,0-.169.332H5.686A1.179,1.179,0,0,1,5.9,2.6a1.445,1.445,0,0,1,.607-.48,2.074,2.074,0,0,1,.853-.173,2.038,2.038,0,0,1,1.306.379,1.261,1.261,0,0,1,.475,1.042,1.051,1.051,0,0,1-.2.607,1.4,1.4,0,0,1-.573.463A1.338,1.338,0,0,1,9,4.879a1.148,1.148,0,0,1,.226.723A1.284,1.284,0,0,1,8.71,6.668a2.128,2.128,0,0,1-1.347.4,2.207,2.207,0,0,1-.907-.186,1.422,1.422,0,0,1-.634-.516,1.342,1.342,0,0,1-.215-.75H6.766a.519.519,0,0,0,.185.4A.652.652,0,0,0,7.4,6.18.683.683,0,0,0,7.89,6.01a.565.565,0,0,0,.181-.432.661.661,0,0,0-.188-.533.786.786,0,0,0-.52-.157H6.8Zm6.457.937a2.376,2.376,0,0,1-.453,1.555,1.565,1.565,0,0,1-1.277.547,1.573,1.573,0,0,1-1.285-.55,2.373,2.373,0,0,1-.455-1.552V4.057A2.376,2.376,0,0,1,10.243,2.5a1.569,1.569,0,0,1,1.28-.547,1.57,1.57,0,0,1,1.282.55,2.378,2.378,0,0,1,.455,1.555ZM12.108,3.91a1.775,1.775,0,0,0-.14-.8.468.468,0,0,0-.444-.265.457.457,0,0,0-.432.246,1.672,1.672,0,0,0-.145.745V5.106a1.788,1.788,0,0,0,.14.815.47.47,0,0,0,.444.258.464.464,0,0,0,.434-.251,1.707,1.707,0,0,0,.144-.788Z" transform="translate(197 1619)" fill="#fff"/>
  </g>
</svg>
