<svg xmlns="http://www.w3.org/2000/svg" xmlns:xlink="http://www.w3.org/1999/xlink" width="32" height="25" viewBox="0 0 32 25">
  <defs>
    <clipPath id="clip-path">
      <rect id="Rectangle_21179" data-name="Rectangle 21179" width="23" height="25" transform="translate(184 1518)" fill="#fff" stroke="#707070" stroke-width="1"/>
    </clipPath>
  </defs>
  <g id="spx500" transform="translate(-184 -1518)">
    <g id="Mask_Group_243" data-name="Mask Group 243" clip-path="url(#clip-path)">
      <g id="usd" transform="translate(184 1519)">
        <circle id="Ellipse_736" data-name="Ellipse 736" cx="11.5" cy="11.5" r="11.5" fill="#f0f0f0"/>
        <g id="Group_21654" data-name="Group 21654">
          <path id="Path_37390" data-name="Path 37390" d="M11,11.5H23a11.513,11.513,0,0,0-.4-3H11Z" fill="#d80027"/>
          <path id="Path_37391" data-name="Path 37391" d="M11,5.5H21.312a11.561,11.561,0,0,0-2.654-3H11Z" fill="#d80027"/>
          <path id="Path_37392" data-name="Path 37392" d="M11.5,23a11.451,11.451,0,0,0,7.159-2.5H4.341A11.451,11.451,0,0,0,11.5,23Z" fill="#d80027"/>
          <path id="Path_37393" data-name="Path 37393" d="M1.688,17.5H21.312a11.431,11.431,0,0,0,1.292-3H.4A11.431,11.431,0,0,0,1.688,17.5Z" fill="#d80027"/>
        </g>
        <path id="Path_37394" data-name="Path 37394" d="M5.327,1.8H6.375L5.4,2.5,5.773,3.65,4.8,2.942l-.975.708.322-.99a11.563,11.563,0,0,0-2.23,2.486H2.25L1.629,5.6q-.145.242-.278.491l.3.912-.553-.4q-.206.437-.376.893l.326,1h1.2L1.275,9.2l.372,1.146L.673,9.642l-.584.424A11.611,11.611,0,0,0,0,11.5H11.5V0A11.446,11.446,0,0,0,5.327,1.8Zm.446,8.554L4.8,9.642l-.975.708L4.2,9.2,3.221,8.5h1.2L4.8,7.35,5.17,8.5h1.2L5.4,9.2ZM5.4,5.854,5.773,7,4.8,6.292,3.823,7,4.2,5.854l-.975-.708h1.2L4.8,4,5.17,5.146h1.2Zm4.5,4.5-.975-.708-.975.708L8.32,9.2,7.346,8.5h1.2L8.923,7.35,9.3,8.5h1.2L9.525,9.2Zm-.372-4.5L9.9,7l-.975-.708L7.948,7,8.32,5.854l-.975-.708h1.2L8.923,4,9.3,5.146h1.2Zm0-3.35L9.9,3.65l-.975-.708-.975.708L8.32,2.5,7.346,1.8h1.2L8.923.65,9.3,1.8h1.2Z" fill="#0052b4"/>
      </g>
    </g>
    <circle id="Ellipse_728" data-name="Ellipse 728" cx="9.5" cy="9.5" r="9.5" transform="translate(197 1521)" fill="#636363"/>
    <path id="Path_37629" data-name="Path 37629" d="M3.792,4.569l.3-2.546H7v.9H5.033l-.113.989a1.359,1.359,0,0,1,.323-.127,1.474,1.474,0,0,1,.391-.055,1.46,1.46,0,0,1,1.14.439,1.769,1.769,0,0,1,.4,1.232,1.766,1.766,0,0,1-.214.866,1.468,1.468,0,0,1-.6.6,1.894,1.894,0,0,1-.913.208,2.038,2.038,0,0,1-.878-.193,1.576,1.576,0,0,1-.643-.529,1.286,1.286,0,0,1-.229-.76H4.852a.653.653,0,0,0,.174.433.553.553,0,0,0,.414.16q.581,0,.581-.86,0-.795-.711-.795a.709.709,0,0,0-.6.259Zm7.441.4a2.376,2.376,0,0,1-.453,1.555A1.565,1.565,0,0,1,9.5,7.068a1.573,1.573,0,0,1-1.285-.55,2.373,2.373,0,0,1-.455-1.552V4.057A2.376,2.376,0,0,1,8.217,2.5,1.569,1.569,0,0,1,9.5,1.955a1.57,1.57,0,0,1,1.282.55,2.378,2.378,0,0,1,.455,1.555ZM10.081,3.91a1.775,1.775,0,0,0-.14-.8A.468.468,0,0,0,9.5,2.844a.457.457,0,0,0-.432.246,1.672,1.672,0,0,0-.145.745V5.106a1.788,1.788,0,0,0,.14.815A.47.47,0,0,0,9.5,6.18a.464.464,0,0,0,.434-.251,1.707,1.707,0,0,0,.144-.788Zm5.206,1.056a2.376,2.376,0,0,1-.453,1.555,1.565,1.565,0,0,1-1.277.547,1.573,1.573,0,0,1-1.285-.55,2.373,2.373,0,0,1-.455-1.552V4.057A2.376,2.376,0,0,1,12.27,2.5a1.569,1.569,0,0,1,1.28-.547,1.57,1.57,0,0,1,1.282.55,2.378,2.378,0,0,1,.455,1.555ZM14.135,3.91a1.775,1.775,0,0,0-.14-.8.468.468,0,0,0-.444-.265.457.457,0,0,0-.432.246,1.672,1.672,0,0,0-.145.745V5.106a1.788,1.788,0,0,0,.14.815.47.47,0,0,0,.444.258.464.464,0,0,0,.434-.251,1.707,1.707,0,0,0,.144-.788Z" transform="translate(197 1526)" fill="#fff"/>
  </g>
</svg>
